<?xml version="1.0" standalone="no"?>
<!DOCTYPE svg PUBLIC "-//W3C//DTD SVG 20010904//EN"
 "http://www.w3.org/TR/2001/REC-SVG-20010904/DTD/svg10.dtd">
<svg version="1.0" xmlns="http://www.w3.org/2000/svg"
 width="2010.000000pt" height="2010.000000pt" viewBox="0 0 2010.000000 2010.000000"
 preserveAspectRatio="xMidYMid meet">
<metadata>
Created by potrace 1.11, written by Peter Selinger 2001-2013
</metadata>
<g transform="translate(0.000000,2010.000000) scale(0.100000,-0.100000)"
fill="#000000" stroke="none">
<path d="M4611 10558 c-1102 -2360 -2005 -4298 -2008 -4305 -4 -11 80 -13 458
-13 l464 1 670 1412 671 1412 1864 3 1865 2 667 -1412 667 -1413 489 -3 488
-2 1614 3366 1614 3366 26 -53 c15 -30 730 -1545 1590 -3366 l1564 -3313 478
0 c263 0 478 3 478 8 0 4 -913 1940 -2028 4302 l-2029 4295 -105 3 c-76 2
-108 -1 -115 -10 -5 -7 -808 -1724 -1784 -3816 -1145 -2454 -1777 -3799 -1782
-3790 -4 7 -815 1723 -1802 3813 l-1794 3800 -109 3 -108 3 -2003 -4293z
m2851 915 l735 -1558 -733 -3 c-403 -1 -1065 -1 -1472 0 l-740 3 731 1557
c403 857 735 1558 738 1558 3 0 336 -701 741 -1557z"/>
</g>
</svg>
